<svg width="97" height="32" viewBox="0 0 97 32" fill="none" xmlns="http://www.w3.org/2000/svg">
<g id="Property 1=White">
<path id="Vector" d="M0 23.3315L2.03189 18.7605L2.23539 18.7942C3.0821 21.7741 5.45247 24.2457 8.06008 24.2457C9.95597 24.2457 10.4979 23.1955 10.4979 22.3498C10.4979 21.6043 10.1257 20.9949 9.31275 20.6564L4.06378 18.2185C1.62592 17.0671 0.74547 15.2387 0.74547 13.2068C0.74547 10.4304 2.94609 6.94238 8.33107 6.94238C10.4979 6.94238 12.7671 7.55185 14.5955 8.90678L12.4961 12.8346L12.2926 12.8008C10.9377 9.11028 8.60205 8.29732 6.97613 8.29732C5.35021 8.29732 4.74176 9.00802 4.74176 9.85473C4.74176 10.5654 5.18148 11.2772 6.16419 11.7506L11.1422 14.0535C13.3776 15.1027 14.2918 16.7961 14.2918 18.828C14.2918 22.2486 11.8876 25.7356 6.80842 25.7356C4.20081 25.7356 1.76295 24.7539 0.00204519 23.3315" fill="#FAF8F2"/>
<path id="Vector_2" d="M26.2428 21.7393V8.0928C26.073 7.99156 25.802 7.92305 25.4636 7.92305C23.6014 7.92305 22.45 10.7342 22.45 14.4247C22.45 19.7749 23.3304 22.3488 25.1251 22.3488C25.3961 22.3488 25.938 22.2138 26.2428 21.7393ZM34.3366 31.8302V32H23.9072V31.8302C25.1599 31.4918 26.2438 30.9498 26.2438 29.2912V22.2813C25.5331 24.3132 23.4327 25.7356 21.4693 25.7356C17.4055 25.7356 15.5096 21.4693 15.5096 17.88C15.5096 10.9049 19.6072 6.94238 26.1426 6.94238C28.2082 6.94238 30.6123 7.45061 32.678 8.49979V29.2912C32.678 30.6798 33.3887 31.4243 34.3376 31.8302" fill="#FAF8F2"/>
<path id="Vector_3" d="M53.3517 25.0576V25.2274H45.2589V22.18C44.6495 24.1107 43.0583 25.7356 40.6532 25.7356C37.9106 25.7356 35.9462 24.2794 35.9462 20.3516V11.2086C35.9462 9.51523 35.5054 8.80452 34.2865 8.4323V8.26357L42.3793 6.94238V20.4191C42.3793 21.7056 42.955 22.3498 43.9705 22.3498C44.6137 22.3498 45.0207 22.0451 45.2569 21.6391V11.1759C45.2569 9.4825 44.9521 8.70431 44.1054 8.33106V8.16131L51.69 6.94238V22.5185C51.69 24.2457 52.4007 24.6516 53.3497 25.0576" fill="#FAF8F2"/>
<path id="Vector_4" d="M55.4838 3.35206C55.4838 1.48992 56.94 0 58.8359 0C60.7318 0 62.188 1.48992 62.188 3.35206C62.188 5.2142 60.7318 6.67037 58.8359 6.67037C56.94 6.67037 55.4838 5.18046 55.4838 3.35206ZM63.8814 25.0576V25.2274H54.1289V25.0576C55.0768 24.6516 55.7886 23.9062 55.7886 22.5185V12.1228C55.7886 10.4979 55.3489 9.78621 54.1289 9.41399V9.24526L62.2217 6.94238V22.5185C62.2217 23.9072 62.9324 24.6516 63.8814 25.0576Z" fill="#FAF8F2"/>
<path id="Vector_5" d="M84.1983 25.0576V25.2274H75.1227V25.0576C75.8334 24.7191 76.1044 24.0759 76.1044 22.857V11.8519C76.1044 10.4632 75.5287 9.78621 74.547 9.78621C73.7678 9.78621 73.2606 10.1247 72.8874 10.6329V22.857C72.8874 24.0759 73.1583 24.7191 73.869 25.0576V25.2274H64.7946V25.0576C65.7425 24.6516 66.4542 23.9062 66.4542 22.5185V12.1228C66.4542 10.4979 66.0145 9.78621 64.7946 9.41399V9.24526L72.8874 6.94238V10.0235C73.6318 8.02531 75.359 6.94238 77.6281 6.94238C80.7092 6.94238 82.5386 8.70329 82.5386 11.8519V22.5185C82.5386 23.9072 83.2493 24.6516 84.1983 25.0576Z" fill="#FAF8F2"/>
<path id="Vector_6" d="M96.9142 20.7239C96.1687 23.2302 94.1379 25.7356 90.6161 25.7356C87.399 25.7356 85.9766 23.67 85.9766 20.8599V8.39855H84.3169V8.2288C86.9245 5.99341 89.7008 3.9288 92.3759 1.59217H92.4097V7.5181H95.5255V8.3648H92.4097V19.9457C92.4097 21.4018 93.0529 22.3498 94.2381 22.3498C95.5583 22.3498 96.3037 21.4693 96.6085 20.6226L96.9132 20.7239H96.9142Z" fill="#FAF8F2"/>
</g>
</svg>
